<svg id="Layer_2" data-name="Layer 2" xmlns="http://www.w3.org/2000/svg" viewBox="0 0 2900 2000"><defs><style>.cls-1{opacity:.1}.cls-1,.cls-2,.cls-3{fill:#fff}.cls-4{fill:#f7e4bc}.cls-5{fill:#e8e89c}.cls-6{fill:#e5b64e}.cls-8{fill:#993e22}.cls-9{fill:#b77158}.cls-10{fill:#cecc8d}.cls-12{fill:#aa4724}.cls-14{fill:#afac79}.cls-15{fill:#cca079}.cls-16{fill:#c99e47}.cls-17{fill:#d1c0a1}.cls-19{fill:#ad8468}.cls-20{fill:#c69775}.cls-21{fill:#9b785d}.cls-22{fill:#6f53ad}.cls-24{fill:#5b3e3e}.cls-25{fill:#3d4731}.cls-26{fill:#4c3434}.cls-28{fill:#5e4a96}.cls-29{fill:#4f5e40}.cls-30{fill:#84321f}.cls-2{opacity:.28}.cls-3{opacity:.25}</style></defs><path fill="#352525" d="M1376.02 16.24l-42.75 59.28.8 52.5 42.41 23.42-.46-135.2z"/><path class="cls-26" d="M1376.02 16.24h18.44V610.9h-18.44z"/><path class="cls-6" d="M1376.46 591.17h-127.05V104.12s21.54-16.97 63.52-16.97c46.47 0 63.52 16.97 63.52 16.97v487.05z"/><path class="cls-16" d="M1312.5 87.15c-5.6 0-10.82.31-15.69.83 33.66 3.4 46.49 16.14 46.49 16.14v487.05h32.72V104.12s-17.06-16.97-63.52-16.97z"/><path class="cls-9" d="M1359.35 476.92c.37-5.13.09-10.31-.85-15.37-20.89-1.09-90.64-.26-90.64-.26s-1.94 2.2 0 17.36c8.6-6.05 91.86-6.82 91.49-1.73zm1.47 23.96c.37-5.13.09-10.31-.85-15.37-20.89-1.09-90.64-.26-90.64-.26s-1.94 2.2 0 17.36c8.6-6.05 91.86-6.82 91.49-1.73zm-86.6 75.44c26.88-3.37 54.87-6.64 80.48 2.18 0-20.86-.01-41.72-.02-62.59 0-.67 0-1.37-.32-1.96-.36-.67-1.07-1.09-1.75-1.43-7.43-3.79-16.12-3.93-24.46-3.85-9.58.1-19.16.38-28.73.85-8.46.42-19.39-.46-27.33 2.23.71 5.43 4.2 64.3 2.12 64.56z"/><path class="cls-3" d="M1266.11 111.39c-4.24 10.39-2.11 22.11-.58 33.23 6.2 45.1 1.31 91.04 5.21 136.4.36 4.24 2.05 9.68 6.3 9.68 4.58 0 6-6.15 5.98-10.73-.15-43.77 1.32-87.55 4.41-131.22.58-8.14 1.69-17.24 8.07-22.34 5.62-4.49 15.16-6 16.13-13.13 1.11-8.15-12.69-14.84-19.45-15.91-10.46-1.65-22.04 4.12-26.07 14.02zm5.87 198.26c-3.63 6.73-1.97 14.93-.6 22.45 3.36 18.51 4.33 37.46 2.88 56.22-.24 3.11-.54 6.31.35 9.3.89 2.99 3.28 5.78 6.39 6.09 3.21.33 6.2-2.09 7.57-5.01s1.48-6.26 1.55-9.49c.45-19.97.48-39.96.08-59.93-.09-4.51-.21-9.1-1.59-13.39-2.2-6.85-11.29-16.13-16.62-6.24z"/><path class="cls-30" d="M1481.47 147.4l-25.37 149.94s80.64 313.57 84.16 313.57 118.61-3.52 118.61-3.52l-177.41-459.98z"/><path class="cls-12" d="M1695.42 593.5l-83.84 23.24-130.12-469.34s9.68-20.29 37.39-27.98c30.66-8.5 46.45 4.73 46.45 4.73l130.12 469.35z"/><path class="cls-8" d="M1518.56 119.5a69.25 69.25 0 00-10.13 3.67c23.12-2.88 34.99 7.05 34.99 7.05l130.12 469.35 21.59-5.99-130.12-469.34s-15.79-13.23-46.45-4.73z"/><path class="cls-29" d="M1787.92 612.72l-83.84 23.24-130.12-469.35s9.68-20.29 37.38-27.98c30.66-8.5 46.45 4.73 46.45 4.73l130.12 469.35z"/><path class="cls-25" d="M1611.06 138.72a69.25 69.25 0 00-10.13 3.67c23.12-2.88 34.99 7.05 34.99 7.05l130.12 469.35 21.59-5.99-130.12-469.34s-15.79-13.23-46.45-4.73z"/><path class="cls-30" d="M319.59 233.16l9.08 94.18-70.61 269.94h-73.61l122.89-365.67 12.25 1.55z"/><path class="cls-12" d="M204.96 614.37l-66.58-20.02 114.63-381.22s15.28-9.89 37.28-3.27c24.35 7.32 29.3 23.29 29.3 23.29L204.95 614.37z"/><path class="cls-8" d="M290.3 209.77c-3.87-1.16-7.52-1.81-10.92-2.09 16.04 7.96 19.62 19.5 19.62 19.5L184.45 608.11l20.51 6.17L319.6 233.06s-4.94-15.97-29.3-23.29z"/><path class="cls-15" d="M92.81 581.38h1719.8v89.03H92.81z"/><path class="cls-21" d="M952.72 670.4H92.81l114.3 89.88h1491.21l114.3-89.88h-859.9z"/><path class="cls-24" d="M446.64 581.38H319.59V183.29s21.54-13.87 63.52-13.87c46.47 0 63.52 13.87 63.52 13.87v398.08z"/><path class="cls-26" d="M383.12 169.42c-6.16 0-11.87.31-17.15.82 32.51 2.96 44.94 13.06 44.94 13.06v398.08h35.74V183.29s-17.06-13.87-63.52-13.87z"/><path class="cls-20" d="M446.64 222.87c-21.33-8.49-45.47-9.01-68.56-7.16-18.66 1.49-37.42 4.42-55.01 11.06-1.19.45-2.35.88-3.48 1.3v20.31c4.76-2.72 9.84-4.97 14.94-6.93 31.29-11.97 66.15-14.42 98.8-6.94 4.47 1.02 9.07 2.37 13.31 4.27v-15.91z"/><path class="cls-19" d="M446.64 238.73v-15.91c-11.31-4.5-23.42-6.75-35.74-7.6v15.69c7.55.68 15.05 1.86 22.43 3.55 4.47 1.02 9.07 2.37 13.31 4.27zm-.14 33.83v-15.91c-11.31-4.5-23.42-6.75-35.74-7.6v15.69c7.54.68 15.04 1.86 22.43 3.55 4.47 1.02 9.07 2.37 13.31 4.27z"/><path class="cls-20" d="M446.64 256.41c-21.33-8.49-45.47-9.01-68.56-7.16-18.66 1.49-37.42 4.42-55.01 11.06-1.19.45-2.35.88-3.48 1.3v20.31c4.76-2.72 9.84-4.97 14.94-6.93 31.29-11.97 66.15-14.42 98.8-6.94 4.47 1.02 9.07 2.37 13.31 4.27v-15.91z"/><path class="cls-19" d="M446.5 272.56v-15.91c-11.31-4.5-23.42-6.75-35.74-7.6v15.69c7.54.68 15.04 1.86 22.43 3.55 4.47 1.02 9.07 2.37 13.31 4.27z"/><path class="cls-20" d="M429.04 559.74H343v-80.86s25.33-4.51 43.02-4.59c20.29-.09 43.02 4.59 43.02 4.59v80.86z"/><path class="cls-19" d="M429.04 479.17s-8.11-1.67-18.95-2.99c.08.43.15.85.21 1.27 1.58 10.99-.14 22.25-3.87 32.64-2.14 5.95-4.95 11.66-8.31 17.02-3.13 4.99-6.7 9.74-10.98 13.8-11.73 11.13-27.87 16.17-44.14 17.6v1.52h86.04v-80.86z"/><path class="cls-1" d="M336.77 196.63c-1.59 6.16.13 12.61 1.51 18.82 11.26 50.67-.81 103.67 4.45 155.31.26 2.55 1.51 5.88 4.04 5.51 2.12-.31 2.79-3 2.96-5.13 4.19-54.41-6.31-110.08 6.06-163.24 1.31-5.63 3.76-17.32-2.79-20.98-6.48-3.62-14.7 3.77-16.24 9.71zm7.13 194.33c.52 12.09 1.05 24.18 1.57 36.27.1 2.35.22 4.78 1.23 6.91s3.16 3.9 5.51 3.72c.72-.06 1.45-.31 1.94-.84.76-.83.76-2.08.72-3.2l-1.36-34.1c-.15-3.67 1.18-12.26-2.37-14.7-4.45-3.06-7.4 2-7.23 5.94z"/><path class="cls-24" d="M573.69 582.27H446.64V184.19s21.54-13.87 63.52-13.87c46.47 0 63.52 13.87 63.52 13.87v398.08z"/><path class="cls-26" d="M510.17 170.32c-6.16 0-11.87.31-17.15.81 32.51 2.96 44.94 13.06 44.94 13.06v398.08h35.74V184.19s-17.06-13.87-63.52-13.87z"/><path class="cls-20" d="M573.69 223.77c-21.33-8.49-45.47-9.01-68.56-7.16-18.66 1.49-37.42 4.42-55.01 11.06-1.19.45-2.35.88-3.48 1.3v20.31c4.76-2.72 9.84-4.97 14.94-6.93 31.29-11.97 66.15-14.42 98.8-6.94 4.47 1.02 9.07 2.37 13.31 4.27v-15.91z"/><path class="cls-19" d="M573.69 239.62v-15.91c-11.31-4.5-23.42-6.75-35.74-7.6v15.69c7.54.68 15.04 1.86 22.43 3.55 4.47 1.02 9.07 2.37 13.31 4.27zm-.14 33.84v-15.91c-11.31-4.5-23.42-6.75-35.74-7.6v15.69c7.55.68 15.05 1.86 22.43 3.55 4.47 1.02 9.07 2.37 13.31 4.27z"/><path class="cls-20" d="M573.69 257.31c-21.33-8.49-45.47-9.01-68.56-7.16-18.66 1.49-37.42 4.42-55.01 11.06-1.19.45-2.35.88-3.48 1.3v20.31c4.76-2.72 9.84-4.97 14.94-6.93 31.29-11.97 66.15-14.42 98.8-6.94 4.47 1.02 9.07 2.37 13.31 4.27v-15.91z"/><path class="cls-19" d="M573.55 273.46v-15.91c-11.31-4.5-23.42-6.75-35.74-7.6v15.69c7.55.68 15.05 1.86 22.43 3.55 4.47 1.02 9.07 2.37 13.31 4.27z"/><path class="cls-20" d="M556.09 560.63h-86.04v-80.86s25.33-4.51 43.02-4.59c20.29-.09 43.02 4.59 43.02 4.59v80.86z"/><path class="cls-19" d="M556.09 480.06s-8.11-1.67-18.95-2.99c.08.43.15.85.21 1.27 1.58 10.99-.14 22.25-3.88 32.64-2.14 5.95-4.95 11.66-8.31 17.02-3.13 4.99-6.7 9.74-10.98 13.8-11.73 11.13-27.87 16.17-44.14 17.61v1.52h86.04v-80.86z"/><path class="cls-1" d="M463.82 197.53c-1.59 6.16.13 12.61 1.51 18.82 11.26 50.68-.81 103.67 4.45 155.31.26 2.55 1.51 5.88 4.04 5.51 2.12-.31 2.79-3 2.96-5.13 4.19-54.42-6.31-110.08 6.06-163.24 1.31-5.63 3.76-17.32-2.79-20.98-6.48-3.62-14.7 3.77-16.24 9.71zm7.13 194.33c.52 12.09 1.05 24.18 1.57 36.27.1 2.35.22 4.78 1.23 6.91s3.16 3.9 5.51 3.72c.72-.06 1.45-.31 1.94-.84.76-.83.76-2.08.72-3.2-.45-11.37-.91-22.73-1.36-34.1-.15-3.67 1.18-12.26-2.37-14.7-4.45-3.06-7.4 2-7.23 5.94z"/><path class="cls-24" d="M700.74 583.17H573.69V185.09s21.54-13.87 63.52-13.87c46.47 0 63.52 13.87 63.52 13.87v398.08z"/><path class="cls-29" d="M1481.47 583.17h-87V96.12s14.75-16.97 43.5-16.97c31.82 0 43.5 16.97 43.5 16.97v487.05z"/><path class="cls-25" d="M1437.66 79.15c-3.83 0-7.41.31-10.74.83 23.05 3.4 31.84 16.14 31.84 16.14v487.05h22.41V96.12s-11.68-16.97-43.5-16.97z"/><path class="cls-26" d="M637.22 171.22c-6.16 0-11.87.3-17.15.81 32.51 2.96 44.94 13.06 44.94 13.06v398.08h35.74V185.09s-17.06-13.87-63.52-13.87z"/><path class="cls-20" d="M700.74 224.66c-21.33-8.49-45.47-9.01-68.57-7.16-18.66 1.49-37.42 4.42-55.01 11.06-1.19.45-2.35.88-3.48 1.3v20.31c4.76-2.72 9.84-4.97 14.94-6.93 31.29-11.97 66.15-14.42 98.8-6.94 4.47 1.02 9.07 2.37 13.31 4.27v-15.91z"/><path class="cls-19" d="M700.74 240.52v-15.91c-11.31-4.5-23.42-6.75-35.74-7.6v15.69c7.54.68 15.04 1.86 22.43 3.55 4.47 1.02 9.07 2.37 13.31 4.27zm-.14 33.83v-15.91c-11.31-4.5-23.42-6.75-35.74-7.6v15.69c7.55.68 15.04 1.86 22.43 3.55 4.47 1.02 9.07 2.37 13.31 4.27z"/><path class="cls-20" d="M700.74 258.21c-21.33-8.49-45.47-9.01-68.57-7.16-18.66 1.49-37.42 4.42-55.01 11.06-1.19.45-2.35.88-3.48 1.3v20.31c4.76-2.72 9.84-4.97 14.94-6.93 31.29-11.97 66.15-14.42 98.8-6.94 4.47 1.02 9.07 2.37 13.31 4.27v-15.91z"/><path class="cls-19" d="M700.6 274.35v-15.91c-11.31-4.5-23.42-6.75-35.74-7.6v15.69c7.55.68 15.04 1.86 22.43 3.55 4.47 1.02 9.07 2.37 13.31 4.27z"/><path class="cls-20" d="M683.14 561.53H597.1v-80.86s25.34-4.51 43.02-4.59c20.29-.09 43.02 4.59 43.02 4.59v80.86z"/><path class="cls-19" d="M683.14 480.96s-8.11-1.67-18.95-2.99c.08.43.15.85.21 1.27 1.58 10.99-.14 22.25-3.88 32.64-2.14 5.95-4.95 11.66-8.31 17.02-3.13 4.99-6.7 9.74-10.98 13.8-11.73 11.13-27.87 16.17-44.14 17.6v1.52h86.04v-80.86z"/><path class="cls-1" d="M590.87 198.42c-1.59 6.16.13 12.61 1.51 18.82 11.26 50.67-.81 103.67 4.45 155.31.26 2.55 1.51 5.88 4.04 5.51 2.12-.31 2.79-3 2.96-5.13 4.19-54.41-6.31-110.08 6.06-163.24 1.31-5.63 3.76-17.32-2.79-20.98-6.48-3.62-14.7 3.77-16.24 9.71zM598 392.76c.52 12.09 1.05 24.18 1.57 36.27.1 2.35.22 4.78 1.23 6.91s3.16 3.9 5.51 3.72c.72-.06 1.45-.31 1.94-.84.76-.83.76-2.08.72-3.2-.45-11.37-.91-22.73-1.36-34.1-.15-3.67 1.18-12.26-2.37-14.7-4.45-3.06-7.4 2-7.23 5.94z"/><path class="cls-20" d="M283.64 232.43c9.92 1.09 20.91 3.76 26.14 12.25a96.083 96.083 0 00-3.11 10.94c-.56-5.17-6.33-7.82-11.26-9.47-7.84-2.63-15.75-5.28-23.95-6.34-8.2-1.06-16.83-.44-24.25 3.23 1.2-8.97 1.97-11.35 10.96-11.61 8.5-.25 17.01.08 25.46 1.01zm-62.27 320.6l3.21-11.12c.19-.67.38-1.43.04-2.04-.27-.48-.79-.75-1.29-.99-18.69-8.88-39.46-13.33-60.15-12.9-.57.01-1.18.04-1.62.4-.43.36-.59.94-.71 1.49-.92 3.94-2.23 8.01-2.61 12.02 3.22.69 8.58-1.34 12.36-1.21 5.99.2 11.94 1.17 17.76 2.58 2.92.71 33.46 10.22 33.02 11.77zm6.9-21.58l3.21-11.12c.19-.67.38-1.43.04-2.04-.27-.48-.79-.75-1.29-.99-18.69-8.88-39.46-13.33-60.15-12.9-.57.01-1.18.04-1.62.4-.43.36-.59.94-.71 1.49-.92 3.94-2.23 8.01-2.61 12.02 3.22.69 8.58-1.34 12.36-1.21 5.99.2 11.94 1.17 17.76 2.58 2.92.71 33.46 10.22 33.02 11.77z"/><path class="cls-29" d="M1187.92 582.27H821.47s-29.48-12.47-29.19-64.17c.29-51.99 30.24-65.82 30.24-65.82h365.4v22.01h-38.32l.35 87.24h37.97v20.74z"/><path class="cls-4" d="M1181.64 561.53H830.05s-21.11-8.37-20.83-43.07c.28-34.89 20.83-44.17 20.83-44.17h351.59s-12.75 16.56-13.74 45.29c-.72 20.82 13.74 41.95 13.74 41.95z"/><path class="cls-17" d="M820.37 494.61h351.68l-1.78 6.67-349.9-6.67zm-4.08 27.74h351.68l.56 6.71-352.24-6.71zm3.3 13.87h350.5l1.96 6.09-352.46-6.09z"/><path class="cls-26" d="M825.89 528.87c-.52 11.48-.94 23.46 4.41 33.88-6.35.31-12.43-2.98-16.41-7.46-3.98-4.48-6.16-10.04-7.85-15.59-3.86-12.68-5.48-26.28-1.51-38.93 3.48-11.09 14.93-27.07 29.19-27.8-7.72 17.1-6.98 37.4-7.82 55.91z"/><path class="cls-12" d="M1177.7 453.01H930.59s-19.88-5.24-19.68-26.96c.2-21.84 20.39-27.65 20.39-27.65h246.4v9.25h-25.84l.24 36.65h25.6v8.71z"/><path class="cls-4" d="M1173.47 444.29H936.39s-14.24-3.52-14.05-18.09c.19-14.66 14.05-18.56 14.05-18.56h237.08s-8.6 6.96-9.26 19.03c-.48 8.75 9.26 17.62 9.26 17.62z"/><path class="cls-17" d="M929.85 416.18H1167l-1.2 2.8-235.95-2.8zm-2.74 11.65h237.14l.38 2.82-237.52-2.82zm2.22 5.83h236.35l1.32 2.56-237.67-2.56z"/><path class="cls-26" d="M933.58 430.57c-.35 4.82-.64 9.86 2.97 14.23-4.28.13-8.38-1.25-11.07-3.14-2.68-1.88-4.16-4.22-5.3-6.55-2.61-5.33-3.69-11.04-1.02-16.36 2.35-4.66 10.07-11.38 19.68-11.68-5.2 7.18-4.71 15.71-5.28 23.49z"/><path class="cls-12" d="M1100.62 618.32c-.11-12.37 1.15-24.72.86-37.08-.49-20.6-1.54-41.98-19.06-58.65l-47.76-.38c9.47 4.77 13.79 15.92 15.67 26.36 3.28 18.23 1.63 36.93 1.95 55.45.32 18.52 2.93 37.83 13.47 53.06a91.636 91.636 0 0112.8-33.72c4.39 14.06 15.53 25.84 29.32 31.02-5.57-11.04-7.14-23.68-7.25-36.05z"/><ellipse class="cls-6" cx="1437.97" cy="172.17" rx="18.13" ry="52.03"/><path class="cls-16" d="M1545.74 193.53c-1.4 17.48-3.45 34.9-6.18 52.22-.78 4.95-1.61 9.88-2.5 14.81-.12.7.18 1.3.87 1.54 7.32 2.5 12.9 8.1 17.63 14 5.58 6.97 10.59 14.44 15.8 21.68 3.17 4.41 6.35 8.82 9.52 13.22.83 1.16 2.54.46 2.28-.96a190.875 190.875 0 01-1.88-54.36c.56-5.16 1.34-10.29 2.33-15.38.12-.61-.1-1.05-.58-1.41-12.08-9.31-21.78-21.62-28.14-35.47a92.52 92.52 0 01-4.6-12.28c-.46-1.54-2.87-.88-2.41.66a97.511 97.511 0 0023.88 40.41c3.13 3.18 6.48 6.11 10.02 8.83l-.57-1.41c-3.52 18.25-4.43 36.98-2.61 55.48.51 5.23 1.24 10.43 2.17 15.6l2.28-.96c-5.87-8.15-11.73-16.3-17.6-24.44-4.77-6.62-9.42-13.58-15.62-18.97-3.32-2.89-7.05-5.21-11.23-6.64.29.51.58 1.03.87 1.54 3.12-17.4 5.59-34.91 7.38-52.49.52-5.06.98-10.13 1.38-15.2.13-1.6-2.37-1.6-2.5 0z"/><path class="cls-16" d="M1559.36 252.99c-1.4 17.48-3.46 34.9-6.18 52.22-.78 4.95-1.61 9.88-2.5 14.81-.13.7.18 1.3.87 1.54 7.32 2.5 12.9 8.1 17.63 14.01 5.58 6.97 10.59 14.44 15.8 21.68 3.17 4.41 6.35 8.82 9.52 13.22.83 1.16 2.54.46 2.28-.96a190.875 190.875 0 01-1.88-54.36c.56-5.16 1.34-10.29 2.33-15.38.12-.61-.1-1.05-.57-1.41-12.08-9.31-21.78-21.62-28.14-35.47a92.52 92.52 0 01-4.6-12.28c-.46-1.54-2.87-.88-2.41.66 4.51 15.16 12.78 29.14 23.88 40.41 3.13 3.18 6.48 6.11 10.02 8.83l-.57-1.41c-3.52 18.25-4.43 36.98-2.61 55.48.51 5.23 1.24 10.43 2.17 15.6l2.28-.96c-5.87-8.15-11.73-16.3-17.6-24.44-4.77-6.62-9.42-13.58-15.62-18.97-3.32-2.89-7.05-5.21-11.23-6.64l.87 1.54c3.12-17.4 5.59-34.91 7.38-52.49.52-5.06.98-10.13 1.38-15.2.13-1.6-2.37-1.6-2.5 0zm32.97 237.33c13.77-7 28.79-11.58 44.13-13.38 4.34-.51 8.71-.8 13.08-.88 1.61-.03 1.61-2.53 0-2.5-15.79.29-31.51 3.37-46.22 9.11-4.17 1.63-8.26 3.46-12.25 5.49-1.43.73-.17 2.89 1.26 2.16zm4.26 11.56c1.61 0 1.61-2.5 0-2.5s-1.61 2.5 0 2.5z"/><path class="cls-16" d="M1596.82 501.61c8.85-3.33 17.89-6.12 27.09-8.32 4.6-1.1 9.23-2.05 13.88-2.86 2.33-.4 4.66-.77 7-1.1 1.14-.16 2.28-.31 3.42-.45.45-.06 2.73-.63 3.03-.12.82 1.38 2.98.13 2.16-1.26-.77-1.29-2.16-1.46-3.55-1.31-1.99.21-3.97.49-5.96.77-3.9.55-7.78 1.21-11.65 1.97-7.81 1.53-15.53 3.48-23.13 5.83-4.36 1.35-8.68 2.84-12.96 4.45-1.49.56-.84 2.98.67 2.41zm13.92 54.7c6.21-4.13 13.37-6.26 20.59-7.83 7.92-1.73 15.93-3.12 23.89-4.65 4.68-.9 9.36-1.81 14.14-2.02-.3-.71-.59-1.42-.88-2.13-.46.4-.91.81-1.37 1.21-1.21 1.07.57 2.83 1.77 1.77.46-.4.91-.81 1.37-1.21.8-.71.17-2.18-.88-2.13-8.52.36-16.99 2.53-25.34 4.13-7.74 1.49-15.63 2.72-23.12 5.25-4.01 1.35-7.89 3.11-11.42 5.46-1.33.89-.08 3.05 1.26 2.16zm4 12c9.58-3.19 19.29-5.99 29.1-8.35 4.83-1.16 9.68-2.23 14.56-3.18 2.52-.49 5.04-.96 7.56-1.4 1.95-.34 4.9-1.4 6.72-.24 1.36.86 2.62-1.3 1.26-2.16-1.4-.89-2.98-.9-4.58-.68-1.92.26-3.82.63-5.73.97a353.101 353.101 0 00-36.03 8.42c-4.54 1.32-9.05 2.73-13.54 4.22-1.52.51-.87 2.92.67 2.41zm-24.04-391.9c.15-.14.3-.28.46-.42.11-.1.79-.65.29-.26-.46.36.08-.06.15-.1.17-.12.34-.23.51-.35.8-.53 1.65-1 2.51-1.43.44-.22.88-.41 1.32-.62-.79.37 0 0 .35-.14.91-.36 1.83-.69 2.75-1 3.96-1.36 7.94-2.67 11.94-3.94 8.11-2.58 16.34-4.89 24.75-6.23.62-.1 1.24-.19 1.86-.28-.09.01-.76.1-.17.02.39-.05.78-.1 1.17-.14 1.17-.14 2.34-.25 3.51-.35 2.43-.19 4.86-.28 7.29-.27 2.62.01 5.12-2.31 5-5-.12-2.72-2.2-4.98-5-5-18.13-.1-35.64 5.62-52.61 11.41-4.78 1.63-9.4 3.55-13.16 7.02-1.93 1.78-1.94 5.29 0 7.07 2.06 1.89 5.02 1.9 7.07 0zm2.95 19.59c2.62 0 5.12-2.3 5-5-.12-2.71-2.2-5-5-5-2.62 0-5.12 2.3-5 5 .12 2.71 2.2 5 5 5z"/><path class="cls-16" d="M1596.05 195.04c1.94-.91 3.9-1.8 5.88-2.63-.76.32.25-.1.5-.2.5-.2.99-.4 1.49-.6 1-.4 2-.78 3-1.16 3.95-1.48 7.95-2.81 12-3.98s8.15-2.18 12.28-3.02a159.414 159.414 0 019.05-1.59c.53-.08 1.06-.15 1.59-.23-.08.01-.78.1-.19.03.38-.04.76-.1 1.14-.14 4.72-.57 9.46-.93 14.21-1.09 2.61-.09 5.12-2.24 5-5-.12-2.63-2.2-5.09-5-5-17.59.59-35.14 3.91-51.67 9.98-4.86 1.79-9.65 3.8-14.34 6.01-2.37 1.12-3.17 4.71-1.79 6.84 1.57 2.44 4.3 2.99 6.84 1.79zm98.04 352.29c.29-.28.58-.56.89-.83.31-.27.97-.68.25-.22.79-.51 1.55-1.05 2.39-1.5.71-.39 1.45-.73 2.19-1.07-.89.41.16-.05.51-.18.45-.17.9-.33 1.36-.48 3.66-1.23 7.47-2.07 11.24-2.88 4.01-.85 8.05-1.57 12.11-2.14.24-.03.48-.07.72-.1-.21.03-.91.12.11-.01l1.44-.18c1.04-.13 2.08-.24 3.12-.35 2.08-.21 4.16-.39 6.25-.53 4.73-.32 9.47-.44 14.22-.39 2.62.03 5.12-2.32 5-5-.12-2.73-2.2-4.97-5-5-8.68-.1-17.36.43-25.97 1.57-8.54 1.14-17.26 2.57-25.48 5.24-4.57 1.49-8.91 3.6-12.39 6.98-1.88 1.83-1.97 5.26 0 7.07 2.02 1.85 5.07 1.95 7.07 0zm7.88 20.45c1.48-1.03 3.05-1.83 4.67-2.61.52-.25-.14.05-.21.08l.6-.24c.4-.16.81-.31 1.21-.45.88-.32 1.77-.61 2.67-.88 3.7-1.14 7.45-2.11 11.17-3.15 3.96-1.1 7.91-2.23 11.88-3.28 1.94-.51 3.89-1 5.85-1.42.94-.2 1.88-.39 2.83-.56.47-.09.94-.17 1.42-.24.24-.04.47-.07.71-.11.09-.01 1.05-.14.52-.08-.55.07.23-.02.28-.03.31-.03.63-.07.95-.1.55-.05 1.1-.1 1.65-.13 1.1-.07 2.2-.1 3.3-.09 1.1.01 2.2.07 3.29.17.23.02.47.05.7.07-.52-.05-.34-.06.08.01.63.1 1.25.22 1.87.35 2.55.53 5.53-.75 6.15-3.49.57-2.5-.75-5.58-3.49-6.15-8.85-1.85-17.75-.6-26.42 1.57-8.08 2.02-16.14 4.31-24.14 6.65-4.38 1.28-8.8 2.87-12.58 5.49-2.14 1.49-3.34 4.45-1.79 6.84 1.38 2.13 4.54 3.39 6.84 1.79zm2.9-70.61c2.44-7.4 4.33-14.96 5.66-22.63h-9.64c2.33 7.81 4.66 15.62 7 23.42 1.14 3.82 2.28 7.65 3.43 11.47.55 1.83 1.02 3.7 1.66 5.5.73 2.05 2.27 3.61 4.48 3.91 2.12.28 4.28-.73 5.3-2.65.83-1.55.98-3.51 0-5.05-.03-.05-.07-.1-.1-.16-1.4-2.21-4.51-3.29-6.84-1.79-2.21 1.42-3.29 4.48-1.79 6.84.03.05.07.1.1.16v-5.05c-.04.07-.07.13-.11.2l2.99-2.3c-.07.02-.14.04-.21.07 1.28.17 2.57.34 3.85.5-.07-.04-.13-.08-.2-.12l1.79 1.79c.3.83.37 1 .22.51l-.21-.72-.36-1.2c-.26-.88-.52-1.75-.79-2.63-.48-1.59-.95-3.19-1.43-4.78-1.02-3.43-2.05-6.85-3.07-10.28-2.02-6.77-4.04-13.54-6.07-20.32-.61-2.03-2.61-3.77-4.82-3.67-2.05.09-4.44 1.47-4.82 3.67-1.33 7.67-3.22 15.23-5.66 22.63-.82 2.49.95 5.57 3.49 6.15 2.75.63 5.27-.83 6.15-3.49z"/><path class="cls-12" d="M2428.32 1260.13l-86.71-.79 2.49-271.68s14.79-9.33 43.44-9.07c31.71.29 43.27 9.86 43.27 9.86l-2.49 271.68z"/><path class="cls-8" d="M2387.54 978.58c-4.21-.04-8.1.13-11.71.45 22.17 2.23 30.59 9.19 30.59 9.19l-2.49 271.68 24.39.22 2.49-271.68s-11.55-9.57-43.27-9.86z"/><path class="cls-20" d="M2430.56 1015.46c-14.5-5.93-30.98-6.43-46.75-5.32-12.75.9-25.57 2.78-37.61 7.2-.82.3-1.61.58-2.38.87l-.13 13.86c3.27-1.83 6.74-3.33 10.24-4.63 21.43-7.97 45.23-9.42 67.47-4.12 3.05.73 6.17 1.67 9.05 3l.1-10.86zm-.21 22.89c-14.5-5.93-30.97-6.43-46.75-5.32-12.75.9-25.57 2.78-37.61 7.2-.82.3-1.61.58-2.38.87l-.13 13.86c3.27-1.83 6.74-3.33 10.24-4.63 21.43-7.97 45.23-9.43 67.47-4.12 3.05.73 6.17 1.67 9.05 3l.1-10.86z"/><path class="cls-1" d="M2355.74 996.86c-1.13 4.19.01 8.61.91 12.85 7.37 34.65-1.2 70.74 2.07 106.02.16 1.74.99 4.02 2.72 3.78 1.45-.2 1.92-2.03 2.05-3.49 3.2-37.11-3.62-75.17 5.16-111.37.93-3.84 2.67-11.79-1.77-14.33-4.4-2.51-10.06 2.48-11.15 6.53z"/><path class="cls-6" d="M2683.4 1270.91h-127.05V783.86s21.54-16.97 63.53-16.97c46.47 0 63.52 16.97 63.52 16.97v487.05z"/><path class="cls-16" d="M2619.44 766.89c-5.6 0-10.82.31-15.69.83 33.66 3.4 46.49 16.14 46.49 16.14v487.05h32.72V783.86s-17.06-16.97-63.52-16.97z"/><path class="cls-9" d="M2666.28 1156.66c.37-5.13.09-10.31-.85-15.37-20.89-1.09-90.64-.26-90.64-.26s-1.94 2.2 0 17.36c8.6-6.05 91.86-6.82 91.49-1.73zm1.47 23.96c.37-5.13.09-10.31-.85-15.37-20.89-1.09-90.64-.26-90.64-.26s-1.94 2.2 0 17.36c8.6-6.05 91.86-6.82 91.49-1.73zm-86.59 75.43c26.88-3.37 54.87-6.64 80.48 2.18 0-20.86-.01-41.72-.02-62.59 0-.67 0-1.37-.32-1.96-.36-.67-1.07-1.09-1.75-1.43-7.43-3.79-16.12-3.93-24.46-3.85-9.58.1-19.16.38-28.73.85-8.46.42-19.39-.46-27.33 2.23.71 5.43 4.2 64.3 2.12 64.57z"/><path class="cls-3" d="M2573.05 791.13c-4.24 10.39-2.11 22.11-.58 33.23 6.2 45.1 1.31 91.04 5.21 136.4.36 4.24 2.05 9.68 6.3 9.68 4.58 0 6-6.15 5.98-10.73-.15-43.77 1.32-87.55 4.41-131.22.58-8.14 1.69-17.24 8.07-22.34 5.62-4.49 15.16-6 16.13-13.13 1.11-8.15-12.69-14.84-19.45-15.91-10.46-1.65-22.04 4.12-26.07 14.02zm5.86 198.26c-3.63 6.73-1.96 14.93-.6 22.45 3.36 18.51 4.33 37.46 2.88 56.22-.24 3.11-.54 6.31.35 9.3s3.28 5.78 6.39 6.09c3.21.33 6.2-2.09 7.57-5.01s1.48-6.26 1.55-9.49c.45-19.97.48-39.95.08-59.93-.09-4.51-.21-9.1-1.59-13.39-2.2-6.85-11.29-16.13-16.62-6.24z"/><path class="cls-22" d="M2784.96 1265.67l-101.56-.77 2.87-378.74s17.32-13.07 50.88-12.81c37.14.28 50.68 13.58 50.68 13.58l-2.87 378.74z"/><path class="cls-28" d="M2736.8 873.35c-4.47-.03-8.65.17-12.55.55 26.89 2.85 37.07 12.83 37.07 12.83l-2.87 378.74 26.16.2 2.87-378.74s-13.53-13.3-50.68-13.58z"/><path class="cls-3" d="M2699.58 891.92c-3.45 8.05-1.82 17.18-.66 25.83 4.69 35.11.51 70.8 3.36 106.1.27 3.29 1.58 7.54 4.98 7.57 3.66.03 4.83-4.74 4.84-8.31.14-34.04 1.57-68.07 4.3-102.01.51-6.33 1.46-13.4 6.58-17.32 4.52-3.46 12.15-4.57 12.97-10.11.94-6.33-10.06-11.62-15.45-12.49-8.35-1.35-17.64 3.07-20.92 10.74zm3.52 154.2c-2.94 5.21-1.66 11.6-.61 17.45 2.58 14.42 3.24 29.15 1.97 43.73-.21 2.42-.47 4.9.22 7.24.69 2.33 2.59 4.51 5.07 4.78 2.57.27 4.97-1.59 6.08-3.85 1.11-2.26 1.22-4.86 1.3-7.37.48-15.53.62-31.07.42-46.6-.05-3.51-.12-7.07-1.19-10.42-1.71-5.34-8.93-12.61-13.25-4.96z"/><path class="cls-24" d="M2555.33 1261.54h-127.05V863.46s21.54-13.87 63.52-13.87c46.47 0 63.53 13.87 63.53 13.87v398.08z"/><path class="cls-26" d="M2491.8 849.58c-6.16 0-11.87.3-17.15.81 32.51 2.96 44.94 13.06 44.94 13.06v398.08h35.74V863.45s-17.06-13.87-63.53-13.87z"/><path class="cls-20" d="M2555.33 903.03c-21.33-8.49-45.47-9.01-68.57-7.16-18.66 1.49-37.42 4.42-55.01 11.06-1.19.45-2.35.88-3.48 1.3v20.31c4.76-2.72 9.84-4.97 14.94-6.93 31.29-11.97 66.15-14.42 98.8-6.94 4.47 1.02 9.07 2.37 13.31 4.27v-15.91z"/><path class="cls-19" d="M2555.33 918.89v-15.91c-11.31-4.5-23.42-6.75-35.74-7.6v15.69c7.55.68 15.05 1.86 22.43 3.55 4.47 1.02 9.07 2.37 13.31 4.27zm-.14 33.83v-15.91c-11.31-4.5-23.42-6.75-35.74-7.6v15.69c7.54.68 15.04 1.86 22.43 3.55 4.47 1.02 9.07 2.37 13.31 4.27z"/><path class="cls-20" d="M2555.33 936.57c-21.33-8.49-45.47-9.01-68.57-7.16-18.66 1.49-37.42 4.42-55.01 11.06-1.19.45-2.35.88-3.48 1.3v20.31c4.76-2.72 9.84-4.97 14.94-6.93 31.29-11.97 66.15-14.42 98.8-6.94 4.47 1.02 9.07 2.37 13.31 4.27v-15.91z"/><path class="cls-19" d="M2555.19 952.72v-15.91c-11.31-4.5-23.42-6.75-35.74-7.6v15.69c7.54.68 15.04 1.86 22.43 3.55 4.47 1.02 9.07 2.37 13.31 4.27z"/><path class="cls-20" d="M2537.72 1239.9h-86.04v-80.86s25.34-4.51 43.02-4.59c20.29-.09 43.02 4.59 43.02 4.59v80.86z"/><path class="cls-19" d="M2537.72 1159.33s-8.11-1.67-18.95-2.99c.08.43.15.85.21 1.27 1.58 10.99-.14 22.25-3.88 32.64-2.14 5.95-4.95 11.66-8.31 17.02-3.13 4.99-6.7 9.74-10.98 13.8-11.73 11.13-27.87 16.17-44.14 17.61v1.52h86.04v-80.86z"/><path class="cls-1" d="M2445.45 876.79c-1.59 6.16.13 12.61 1.51 18.82 11.26 50.67-.81 103.67 4.45 155.31.26 2.55 1.51 5.88 4.04 5.51 2.12-.31 2.79-3 2.96-5.13 4.19-54.42-6.31-110.08 6.06-163.24 1.31-5.63 3.76-17.32-2.79-20.98-6.48-3.62-14.7 3.77-16.24 9.71zm7.13 194.33c.52 12.09 1.05 24.18 1.57 36.27.1 2.35.22 4.78 1.23 6.91s3.16 3.9 5.51 3.71c.72-.05 1.45-.31 1.94-.84.76-.83.76-2.08.72-3.2-.45-11.37-.91-22.73-1.36-34.1-.15-3.67 1.18-12.26-2.37-14.7-4.45-3.06-7.4 2-7.23 5.94z"/><path class="cls-30" d="M1922.12 868.84l10.84 151.68s152.56 285.57 155.98 284.74c3.42-.83 114.41-31.5 114.41-31.5l-281.23-404.93z"/><path class="cls-12" d="M2235.58 1251.63l-75.96 42.42-237.5-425.21s4.6-22.01 29.7-36.03c27.78-15.52 46.25-6.4 46.25-6.4l237.5 425.22z"/><path class="cls-8" d="M1951.56 832.96a68.615 68.615 0 00-8.98 5.97c21.78-8.27 35.66-1.43 35.66-1.43l237.5 425.22 23.98-3.03-241.92-433.11s-18.47-9.12-46.25 6.4z"/><path class="cls-16" d="M2111.02 1175.76c11.7-10.04 25.18-18.02 39.63-23.4 4.13-1.54 8.34-2.86 12.6-3.98 1.55-.41.89-2.82-.66-2.41-15.3 4.03-29.87 10.76-42.82 19.85-3.64 2.55-7.14 5.29-10.51 8.18-1.22 1.05.55 2.81 1.77 1.77zm7.04 9.92c7.8-5.33 15.92-10.17 24.32-14.48 4.17-2.14 8.4-4.14 12.69-6.02 2.19-.95 4.39-1.87 6.6-2.75 1.12-.45 2.25-.88 3.38-1.31.44-.17 2.4-1.21 2.82-.78 1.13 1.15 2.9-.62 1.77-1.77s-2.62-.84-3.98-.34c-1.91.7-3.81 1.45-5.7 2.21-3.6 1.45-7.17 2.99-10.7 4.62-7.2 3.33-14.22 7.04-21.02 11.12-3.89 2.33-7.7 4.78-11.45 7.33-1.32.9-.07 3.07 1.26 2.16zm26.45 49.85c5-5.43 11.39-9.17 17.97-12.38 7.43-3.63 15.02-6.94 22.54-10.38 4.26-1.95 8.53-3.89 13.04-5.2l-1.41-1.84c-.35.5-.69 1-1.04 1.5-.92 1.33 1.25 2.58 2.16 1.26.35-.5.69-1 1.04-1.5.63-.91-.41-2.12-1.41-1.84-8.19 2.37-15.9 6.48-23.63 10.02-7.15 3.27-14.5 6.33-21.17 10.54-3.6 2.27-6.96 4.91-9.85 8.04-1.09 1.18.67 2.95 1.77 1.77zm6.74 10.71a352.422 352.422 0 0146.35-24.54c1.17-.51 2.34-1.04 3.53-1.52 1.08-.44 2.15-.83 3.3-.44 1.53.51 2.19-1.9.67-2.41-1.72-.57-3.4-.07-5.01.6a219.4 219.4 0 00-5.46 2.37c-3.71 1.65-7.4 3.36-11.05 5.13-7.38 3.58-14.63 7.43-21.74 11.52-4 2.3-7.94 4.68-11.85 7.13-1.36.85-.11 3.02 1.26 2.16z"/><path class="cls-25" d="M1820.39 837.2l-48.42 81.69 99.73 370.48h103.82l-97.23-358.62-57.9-93.55z"/><path class="cls-29" d="M2034.35 1283.3l-83.84 23.24-130.12-469.35s9.68-20.29 37.39-27.98c30.66-8.5 46.45 4.73 46.45 4.73l130.12 469.35z"/><path class="cls-25" d="M1857.49 809.3a69.25 69.25 0 00-10.13 3.67c23.12-2.88 34.99 7.05 34.99 7.05l130.12 469.35 21.59-5.99-130.12-469.34s-15.79-13.23-46.45-4.73z"/><path class="cls-16" d="M1837.13 846.99c.15-.14.3-.28.46-.42.11-.1.79-.65.29-.26-.46.36.08-.06.15-.1.17-.12.34-.23.51-.35.8-.53 1.65-1 2.51-1.43.43-.22.88-.41 1.32-.62-.79.37 0 0 .35-.14.91-.36 1.83-.69 2.75-1 3.96-1.36 7.94-2.67 11.94-3.94 8.11-2.58 16.34-4.89 24.75-6.23.62-.1 1.24-.19 1.86-.28-.09.01-.76.1-.16.02.39-.05.78-.1 1.17-.14 1.17-.14 2.34-.25 3.51-.35 2.43-.19 4.86-.28 7.29-.27 2.62.01 5.12-2.31 5-5-.12-2.72-2.2-4.98-5-5-18.13-.1-35.64 5.62-52.61 11.41-4.78 1.63-9.4 3.55-13.16 7.02-1.93 1.78-1.94 5.3 0 7.07 2.06 1.89 5.01 1.9 7.07 0zm2.95 19.59c2.62 0 5.12-2.3 5-5-.12-2.71-2.2-5-5-5-2.62 0-5.12 2.3-5 5 .12 2.71 2.2 5 5 5z"/><path class="cls-16" d="M1842.48 865.62c1.94-.91 3.9-1.8 5.88-2.63-.76.32.25-.1.5-.2.5-.2.99-.4 1.49-.6 1-.4 2-.78 3-1.16 3.95-1.48 7.95-2.81 12-3.98s8.15-2.18 12.28-3.02a159.414 159.414 0 019.05-1.59c.53-.08 1.06-.15 1.59-.23-.08.01-.78.1-.19.03.38-.05.76-.1 1.14-.14 4.72-.57 9.46-.93 14.21-1.09 2.61-.09 5.12-2.24 5-5-.12-2.63-2.2-5.09-5-5-17.59.59-35.14 3.91-51.67 9.98-4.86 1.79-9.65 3.8-14.34 6.01-2.37 1.12-3.17 4.71-1.79 6.84 1.57 2.44 4.3 2.99 6.84 1.79zm98.04 352.29c.29-.28.58-.56.89-.83.31-.27.97-.68.25-.22.79-.51 1.56-1.05 2.39-1.5.71-.39 1.45-.73 2.19-1.07-.89.41.16-.05.51-.18.45-.17.9-.33 1.36-.48 3.66-1.23 7.47-2.07 11.24-2.88 4.01-.85 8.05-1.57 12.11-2.14.24-.03.48-.07.72-.1-.21.03-.91.12.1-.01l1.44-.18c1.04-.12 2.08-.24 3.12-.35 2.08-.21 4.16-.39 6.25-.53 4.73-.32 9.47-.44 14.22-.39 2.62.03 5.12-2.32 5-5-.12-2.73-2.2-4.97-5-5-8.68-.1-17.36.43-25.97 1.57-8.54 1.14-17.26 2.57-25.48 5.24-4.57 1.49-8.91 3.6-12.39 6.98-1.88 1.83-1.97 5.26 0 7.07 2.02 1.85 5.07 1.95 7.07 0zm7.88 20.45c1.48-1.03 3.05-1.83 4.67-2.61.52-.25-.14.05-.21.08l.6-.24c.4-.16.81-.31 1.21-.45.88-.32 1.77-.61 2.67-.88 3.7-1.14 7.45-2.11 11.17-3.15 3.96-1.1 7.91-2.23 11.88-3.28 1.94-.51 3.89-1 5.85-1.42.94-.2 1.88-.39 2.83-.57.47-.09.94-.17 1.42-.24.24-.04.47-.07.71-.11.09-.01 1.05-.14.52-.08-.55.07.23-.02.28-.03.32-.03.63-.07.95-.1.55-.05 1.1-.1 1.65-.13 1.1-.07 2.2-.1 3.3-.09 1.1.01 2.2.07 3.29.17.24.02.47.05.7.07-.52-.05-.34-.05.08.01.63.1 1.25.22 1.87.35 2.55.53 5.53-.75 6.15-3.49.57-2.5-.75-5.58-3.49-6.15-8.85-1.85-17.75-.6-26.42 1.57-8.08 2.02-16.14 4.31-24.14 6.65-4.38 1.28-8.8 2.87-12.58 5.49-2.14 1.49-3.34 4.45-1.79 6.84 1.37 2.13 4.54 3.39 6.84 1.79zm2.9-70.61c2.44-7.4 4.33-14.96 5.66-22.63h-9.64c2.33 7.81 4.66 15.62 7 23.42 1.14 3.82 2.28 7.65 3.43 11.47.55 1.83 1.02 3.7 1.66 5.5.73 2.05 2.27 3.61 4.48 3.91 2.12.28 4.28-.73 5.3-2.65.83-1.55.98-3.51 0-5.05-.03-.05-.07-.1-.1-.16-1.4-2.21-4.51-3.29-6.84-1.79-2.21 1.42-3.29 4.48-1.79 6.84.03.05.07.1.1.16v-5.05c-.04.07-.07.13-.11.2l2.99-2.3c-.07.02-.14.04-.21.07 1.28.17 2.57.34 3.85.5-.07-.04-.13-.08-.2-.12l1.79 1.79c.3.83.37 1 .22.51l-.21-.72-.36-1.2c-.26-.88-.52-1.75-.79-2.63-.48-1.59-.95-3.19-1.43-4.78-1.02-3.43-2.05-6.85-3.07-10.28-2.02-6.77-4.04-13.54-6.07-20.32-.61-2.03-2.61-3.77-4.82-3.67-2.05.09-4.44 1.47-4.82 3.67-1.33 7.67-3.22 15.23-5.66 22.63-.82 2.49.95 5.57 3.49 6.15 2.75.63 5.27-.83 6.15-3.49z"/><path class="cls-6" d="M1694.1 1259.67v-127.05h-487.05s-16.97 21.54-16.97 63.53c0 46.47 16.97 63.52 16.97 63.52h487.05z"/><path class="cls-16" d="M1190.08 1195.71c0-5.6.31-10.82.83-15.69 3.4 33.66 16.14 46.49 16.14 46.49h487.05v32.72h-487.05s-16.97-17.06-16.97-63.52z"/><path class="cls-9" d="M1579.85 1242.55c-5.13.38-10.31.09-15.37-.85-1.09-20.89-.26-90.64-.26-90.64s2.2-1.94 17.36 0c-6.05 8.6-6.82 91.86-1.73 91.49zm23.96 1.48c-5.13.37-10.31.09-15.37-.85-1.09-20.89-.26-90.64-.26-90.64s2.2-1.94 17.36 0c-6.05 8.6-6.82 91.86-1.73 91.49zm75.44-86.6c-3.37 26.88-6.64 54.87 2.18 80.48-20.86 0-41.72-.01-62.58-.02-.67 0-1.37 0-1.96-.32-.67-.36-1.09-1.07-1.43-1.75-3.79-7.43-3.93-16.12-3.85-24.46.09-9.58.38-19.16.85-28.73.42-8.46-.46-19.39 2.23-27.33 5.43.71 64.3 4.2 64.56 2.12z"/><path class="cls-3" d="M1214.32 1149.32c10.39-4.24 22.11-2.11 33.23-.58 45.1 6.2 91.04 1.31 136.4 5.21 4.24.36 9.68 2.05 9.68 6.3 0 4.58-6.15 6-10.73 5.98-43.77-.15-87.55 1.32-131.22 4.41-8.14.58-17.24 1.69-22.34 8.07-4.49 5.62-6 15.16-13.13 16.13-8.15 1.11-14.84-12.69-15.91-19.45-1.65-10.46 4.12-22.04 14.01-26.07zm198.26 5.87c6.73-3.63 14.93-1.97 22.45-.6 18.51 3.36 37.46 4.33 56.22 2.88 3.11-.24 6.31-.54 9.3.35 2.99.89 5.78 3.28 6.09 6.39.33 3.21-2.09 6.2-5.01 7.57s-6.26 1.48-9.49 1.55c-19.97.45-39.96.48-59.93.08-4.51-.09-9.1-.21-13.39-1.59-6.85-2.2-16.13-11.29-6.24-16.62z"/><path class="cls-22" d="M1693.88 1133.25v-101.56h-378.75s-13.2 17.22-13.2 50.78c0 37.15 13.2 50.78 13.2 50.78h378.75z"/><path class="cls-28" d="M1301.94 1082.11c0-4.47.24-8.65.65-12.54 2.64 26.91 12.55 37.16 12.55 37.16h378.75v26.16h-378.75s-13.2-13.63-13.2-50.78z"/><path class="cls-3" d="M1320.79 1045.03c8.08-3.39 17.2-1.68 25.84-.46 35.07 4.96 70.79 1.05 106.07 4.17 3.29.29 7.53 1.64 7.53 5.04 0 3.66-4.78 4.79-8.34 4.78-34.04-.12-68.08 1.06-102.04 3.53-6.33.46-13.41 1.35-17.37 6.45-3.5 4.49-4.66 12.12-10.21 12.89-6.34.89-11.54-10.14-12.37-15.55-1.28-8.36 3.21-17.62 10.9-20.84zm154.17 4.69c5.23-2.9 11.61-1.57 17.46-.48 14.4 2.69 29.13 3.46 43.72 2.3 2.42-.19 4.91-.43 7.24.28s4.49 2.62 4.74 5.11c.26 2.57-1.63 4.95-3.9 6.05-2.27 1.1-4.87 1.18-7.38 1.24-15.53.36-31.07.38-46.6.06-3.51-.07-7.07-.17-10.42-1.27-5.33-1.76-12.54-9.02-4.85-13.29z"/><path class="cls-29" d="M1693.88 1032.31V930.75h-453.02s-15.78 17.22-15.78 50.78c0 37.15 15.78 50.78 15.78 50.78h453.02z"/><path class="cls-25" d="M1225.08 981.17c0-4.48.29-8.65.77-12.54 3.16 26.91 15.01 37.16 15.01 37.16h453.02v26.16h-453.02s-15.78-13.63-15.78-50.78z"/><path class="cls-15" d="M1118.89 1259.67h1719.8v89.03h-1719.8z"/><path class="cls-24" d="M1820.39 1261.54h-127.05V863.46s21.54-13.87 63.53-13.87c46.47 0 63.52 13.87 63.52 13.87v398.08z"/><path class="cls-26" d="M1756.87 849.58c-6.16 0-11.87.3-17.15.81 32.51 2.96 44.94 13.06 44.94 13.06v398.08h35.74V863.45s-17.06-13.87-63.52-13.87z"/><path class="cls-20" d="M1820.39 903.03c-21.33-8.49-45.47-9.01-68.57-7.16-18.66 1.49-37.42 4.42-55 11.06-1.19.45-2.35.88-3.48 1.3v20.31c4.76-2.72 9.84-4.97 14.94-6.93 31.29-11.97 66.15-14.42 98.8-6.94 4.47 1.02 9.07 2.37 13.31 4.27v-15.91z"/><path class="cls-19" d="M1820.39 918.89v-15.91c-11.31-4.5-23.42-6.75-35.74-7.6v15.69c7.54.68 15.04 1.86 22.43 3.55 4.47 1.02 9.07 2.37 13.31 4.27zm-.14 33.83v-15.91c-11.31-4.5-23.42-6.75-35.74-7.6v15.69c7.55.68 15.04 1.86 22.43 3.55 4.47 1.02 9.07 2.37 13.31 4.27z"/><path class="cls-20" d="M1820.39 936.57c-21.33-8.49-45.47-9.01-68.57-7.16-18.66 1.49-37.42 4.42-55 11.06-1.19.45-2.35.88-3.48 1.3v20.31c4.76-2.72 9.84-4.97 14.94-6.93 31.29-11.97 66.15-14.42 98.8-6.94 4.47 1.02 9.07 2.37 13.31 4.27v-15.91z"/><path class="cls-19" d="M1820.25 952.72v-15.91c-11.31-4.5-23.42-6.75-35.74-7.6v15.69c7.55.68 15.04 1.86 22.43 3.55 4.47 1.02 9.07 2.37 13.31 4.27z"/><path class="cls-20" d="M1802.79 1239.9h-86.04v-80.86s25.33-4.51 43.02-4.59c20.29-.09 43.02 4.59 43.02 4.59v80.86z"/><path class="cls-19" d="M1802.79 1159.33s-8.11-1.67-18.95-2.99c.08.43.15.85.21 1.27 1.58 10.99-.14 22.25-3.88 32.64-2.14 5.95-4.95 11.66-8.31 17.02-3.13 4.99-6.7 9.74-10.98 13.8-11.73 11.13-27.87 16.17-44.14 17.61v1.52h86.04v-80.86z"/><path class="cls-1" d="M1710.52 876.79c-1.59 6.16.13 12.61 1.51 18.82 11.26 50.67-.81 103.67 4.45 155.31.26 2.55 1.51 5.88 4.04 5.51 2.12-.31 2.79-3 2.96-5.13 4.19-54.42-6.31-110.08 6.06-163.24 1.31-5.63 3.76-17.32-2.79-20.98-6.48-3.62-14.7 3.77-16.24 9.71zm7.13 194.33c.52 12.09 1.04 24.18 1.57 36.27.1 2.35.22 4.78 1.23 6.91s3.16 3.9 5.51 3.71c.72-.05 1.45-.31 1.94-.84.76-.83.76-2.08.72-3.2-.45-11.37-.91-22.73-1.36-34.1-.15-3.67 1.18-12.26-2.37-14.7-4.45-3.06-7.4 2-7.23 5.94z"/><path class="cls-16" d="M1587.5 947.09c-2.04 19.15-3.08 38.42-3.04 57.68.01 5.18.21 10.57 2.1 15.46.94 2.43 3.4 4.38 6.15 3.49 2.37-.77 4.5-3.54 3.49-6.15-.38-.97-.7-1.96-.94-2.97-.12-.5-.23-1.01-.32-1.53l-.12-.66c-.24-1.39.03.59-.03-.22-.18-2.18-.31-4.33-.32-6.52-.03-4.65.03-9.3.14-13.95.22-9.47.69-18.94 1.41-28.38.41-5.42.91-10.84 1.49-16.24.28-2.61-2.5-5.11-5-5-2.95.13-4.7 2.2-5 5zm18.88.04c-1.7 21.36-2.53 42.78-2.45 64.21 0 1.49.01 2.98.03 4.47.02 1.88-.09 3.79.91 5.47 1.52 2.56 4.9 3.53 7.49 2.01 2.57-1.5 3.53-4.88 1.97-7.46-1.36-2.23-4.54-3.27-6.84-1.79-2.24 1.45-3.25 4.45-1.79 6.84.04.06.07.12.11.17-.17-1.28-.34-2.57-.5-3.85l.33-.81 1.79-1.79c-.07.04-.14.08-.2.11.84-.23 1.68-.46 2.52-.68h-.23c.84.22 1.68.45 2.52.68l-.24-.15 1.79 1.79c.13.19.31 2.65.39 1.19.01-.25 0-.5 0-.74 0-.58-.01-1.16-.02-1.74 0-1.16-.02-2.32-.02-3.47v-6.95c.02-4.63.09-9.26.2-13.89.21-9.26.6-18.52 1.15-27.77.31-5.28.68-10.57 1.1-15.84.21-2.61-2.45-5.11-5-5-2.89.13-4.78 2.2-5 5zm60.7.61c-.76 19.34-.48 38.71.88 58.01.38 5.44.85 10.88 1.4 16.31.26 2.59 2.11 5.13 5 5 2.48-.11 5.28-2.21 5-5a531.631 531.631 0 01-2.67-57.96c.05-5.46.18-10.91.4-16.37.1-2.62-2.37-5.12-5-5-2.8.13-4.89 2.2-5 5zm-394.48 5.11c-5.63 2.65-6.66 10.09-6.91 15.59-.27 5.97 1.26 11.97 5.35 16.46 3.65 4 9.02 6.17 14.19 7.38 5.93 1.39 12.11 2.07 18.19 2.42 10.55.61 23.86.58 31.09-8.55a21.809 21.809 0 004.58-15.78c-.6-5.68-3-10.78-6.97-14.91-9.79-10.19-24.76-11.09-37.81-8.22-2.56.56-4.29 3.67-3.49 6.15.87 2.69 3.41 4.1 6.15 3.49 1.29-.29 2.59-.54 3.9-.74.14-.02 1.11-.16.49-.08-.61.08.36-.04.5-.06.7-.08 1.39-.14 2.09-.19 1.32-.09 2.64-.12 3.96-.1.62.01 1.24.04 1.86.09.31.02.62.05.93.08.39.04 1.02.11.28.01 2.38.32 4.69.95 6.94 1.79.98.36-.13-.08-.15-.07.06-.02.57.26.69.31.51.24 1.01.5 1.51.77.94.51 1.82 1.1 2.7 1.7.78.53 0-.06-.11-.11.18.08.42.34.58.47.43.36.85.73 1.25 1.12.36.34.7.7 1.04 1.06.17.18.33.37.49.56.51.59.43.17.03 0 .3.13.68.95.85 1.21a20.9 20.9 0 011.19 2.1c.08.16.45.87.13.23-.31-.63.02.07.09.24.11.28.2.57.29.86.14.46.27.93.38 1.4.07.3.13.59.18.89.03.19.12.98.05.23-.08-.78.05.79.06.96.02.54.03 1.09 0 1.63-.02.43.03 1.04-.12 1.44.39-1.07.06-.49-.02-.08-.05.24-.1.47-.15.7-.11.47-.24.93-.39 1.38-.07.23-.17.45-.24.67-.18.59.44-.88.02-.04-.21.43-.42.85-.66 1.26-.15.26-.31.51-.47.76-.1.14-.51.8-.13.22.38-.58-.05.05-.17.19-.16.18-.32.36-.48.53-.39.41-.81.78-1.24 1.16-.8.7.12-.1.13-.09 0 .04-.53.37-.61.42-.47.31-.95.59-1.44.85-.22.12-.44.23-.67.33-.15.07-.9.39-.26.13.64-.27-.12.04-.28.1-.3.11-.59.21-.89.31-1.03.33-2.08.6-3.15.81-.51.1-1.02.17-1.52.26-.73.13.91-.09.17-.02-.32.03-.64.07-.97.1-2.29.22-4.58.25-6.88.23-2.76-.03-5.53-.16-8.28-.39-1.38-.11-2.75-.25-4.12-.41l-.97-.12c-.83-.09.71.1-.12-.01-.72-.1-1.45-.21-2.17-.32-2.25-.36-4.49-.76-6.69-1.36-1.03-.28-2.05-.6-3.04-.97l-.69-.27c-.66-.25.8.39.17.06-.49-.25-.99-.47-1.48-.74-.53-.29-1.05-.61-1.55-.95-.16-.11-.44-.27-.59-.42.85.9.1.05-.1-.13-.4-.36-.79-.75-1.15-1.15-.11-.13-.62-.73-.19-.2.46.57-.29-.45-.38-.59-.26-.41-.79-1.09-.86-1.57.11.82.17.44.05.1-.13-.38-.26-.75-.37-1.13-.17-.57-.3-1.16-.41-1.75-.06-.32-.34-1.14-.03-.06-.09-.31-.07-.69-.09-1.01-.09-1.29-.07-2.58.02-3.87.02-.27.04-.54.07-.82.03-.28.16-1.53.01-.29.07-.57.17-1.15.28-1.71.1-.52.22-1.04.36-1.54.06-.23.15-.45.21-.68.3-1.08-.52.87.03-.09l.33-.6c.25-.36.24-.38 0-.04-.26.32-.25.32.03 0 .59-.22-.32-.58-.27.13 0-.13.8-.46.87-.49 2.37-1.12 3.17-4.71 1.79-6.84-1.57-2.44-4.3-2.99-6.84-1.79z"/><path class="cls-3" d="M1247.62 944.09c9.66-3.39 20.57-1.68 30.9-.46 41.95 4.96 84.68 1.05 126.87 4.16 3.94.29 9 1.64 9.01 5.04 0 3.66-5.72 4.79-9.98 4.78-40.72-.12-81.44 1.06-122.05 3.53-7.57.46-16.04 1.35-20.78 6.45-4.18 4.49-5.58 12.12-12.21 12.89-7.58.89-13.81-10.15-14.8-15.55-1.53-8.36 3.84-17.62 13.04-20.84zm184.41 4.69c6.26-2.9 13.89-1.57 20.88-.48a237.52 237.52 0 0052.29 2.3c2.9-.19 5.87-.43 8.65.28 2.79.71 5.37 2.62 5.67 5.11.3 2.57-1.95 4.95-4.67 6.05-2.72 1.1-5.82 1.18-8.82 1.24-18.58.36-37.16.38-55.74.06-4.2-.07-8.46-.17-12.46-1.27-6.38-1.75-15-9.02-5.81-13.29z"/><path class="cls-16" d="M2015.92 951.73c-11.24 0-25.67-13.41-35.1-32.61-5.32-10.82-8.34-22.01-8.51-31.49-.18-10.01 2.85-17.07 8.54-19.86 1.69-.83 3.56-1.25 5.56-1.25 11.23 0 25.67 13.41 35.1 32.61 5.32 10.82 8.34 22.01 8.52 31.49.18 10.01-2.85 17.07-8.54 19.86-1.69.83-3.56 1.25-5.56 1.25zm-29.52-81.21c-1.38 0-2.66.28-3.79.84-4.16 2.04-6.46 7.95-6.3 16.2.16 8.91 3.04 19.49 8.11 29.8 8.65 17.6 21.9 30.37 31.51 30.37 1.38 0 2.66-.28 3.79-.84 4.16-2.04 6.46-7.95 6.3-16.2-.16-8.91-3.04-19.49-8.11-29.8-8.65-17.6-21.9-30.37-31.51-30.37z"/><path class="cls-6" d="M2700.07 1146.22c3.1-2.35 6.91-2.66 10.68-2.67 4.69-.02 9.38.11 14.06.18 9.48.13 19.03-.06 28.49.53 4.86.3 9.83 1 14.34 2.92 1.24.53 2.68.37 3.42-.9.61-1.05.35-2.89-.9-3.42-9-3.81-18.74-3.77-28.35-3.9-10.16-.14-20.32-.38-30.48-.41-4.75-.01-9.88.38-13.8 3.36-1.07.82-1.64 2.16-.9 3.42.62 1.06 2.34 1.72 3.42.9zm-5.39 102.43c9.48-3.27 19.12-6.69 29.12-7.91 9.96-1.22 19.96-.12 29.67 2.21 5.6 1.35 11.1 3.07 16.55 4.95 1.28.44 2.73-.5 3.08-1.75.38-1.38-.47-2.63-1.75-3.08-9.89-3.42-20-6.26-30.43-7.39-10.46-1.13-20.79.05-30.92 2.8-5.63 1.53-11.14 3.43-16.65 5.33-1.28.44-2.12 1.71-1.75 3.08.34 1.24 1.79 2.19 3.08 1.75zm21.49-81.14c.8-2.18 3.55-3.03 5.67-3.42 2.75-.5 5.8-.29 8.48.46 2.67.75 5.09 2.26 6.53 4.68 1.28 2.15 1.82 4.85 1.29 7.31-1 4.71-5.01 7.45-8.87 9.85-4.14 2.58-8.69 4.96-11.77 8.85-2.28 2.89-3.26 6.14-3.66 9.78-.49 4.45-.73 8.95-1.09 13.41-.11 1.35 1.23 2.5 2.5 2.5l29.97.12c3.22.01 3.22-4.99 0-5l-29.97-.12 2.5 2.5c.34-4.25.62-8.51 1.02-12.75.28-2.95 1.08-5.6 2.91-7.68 3.45-3.92 8.51-6.04 12.8-9.06 4.92-3.46 8.94-8.21 8.83-14.56-.13-7.32-5.26-13.08-12.24-14.81-6.73-1.67-16.94-1.01-19.73 6.59-.46 1.27.52 2.74 1.75 3.08 1.39.38 2.61-.47 3.08-1.75z"/><path d="M1203.03 1692.76l-52.5-68.25-301.7 5.88s-9.66.17-22.45 23.01c-8.98 16.04-13.89 72.23-13.89 72.23l390.54-32.87z" fill="#788c61"/><path d="M1192.81 1638.88l-49.07-74.04H959.22s-9.83.98-14.26 5.9-18.1 88.73-18.1 88.73l265.95-20.59z" fill="#dd5a31"/><path class="cls-21" d="M986.82 1833.88h-859.9l114.29-89.87h1491.22l114.29 89.87h-859.9z"/><path class="cls-26" d="M570.32 1419.32s-10.94 62.12-13.27 65.49c-2.34 3.37 63.06 267.55 63.06 267.55l56.59 50.56-106.38-383.6z"/><path class="cls-15" d="M126.92 1833.88h1719.8v89.03H126.92z"/><path class="cls-5" d="M309.31 1808.63s-15.18 11.52-39.72 11.52c-33.74 0-47.28-11.52-47.28-11.52v-589.78s14.75-11.35 43.5-11.35c31.82 0 43.5 11.35 43.5 11.35v589.78z"/><path class="cls-10" d="M265.81 1207.51c-.62 0-1.23.01-1.84.02 13.98 3.35 19.57 8.78 19.57 8.78v589.78s-15.02 11.39-39.32 11.51c6.71 1.49 15.1 2.56 25.37 2.56 24.54 0 39.72-11.52 39.72-11.52v-589.78s-11.68-11.35-43.5-11.35z"/><path class="cls-24" d="M799.13 1768.97s-19 24.96-47.93 30.38c-41.67 7.8-74.5 3.58-74.5 3.58l-106.38-383.6s17.05-19.12 57.51-30.34c44.78-12.42 64.92-3.61 64.92-3.61l106.38 383.6z"/><path class="cls-26" d="M627.83 1388.97c-5.94 1.65-11.36 3.47-16.31 5.37 32.12-5.83 46.79.57 46.79.57l113.01 397.16 27.81-23.11-106.38-383.6s-20.14-8.81-64.92 3.61z"/><path class="cls-20" d="M703.32 1423.5c-22.82-2.49-46.22 3.47-67.99 11.42-17.58 6.42-34.88 14.26-50.05 25.36-1.03.75-2.03 1.47-3 2.19l5.43 19.57c3.86-3.89 8.15-7.42 12.55-10.67 26.95-19.89 59.89-31.57 93.35-33.09 4.59-.21 9.37-.14 13.96.56l-4.25-15.33z"/><path class="cls-19" d="M707.56 1438.78l-4.25-15.33c-12.11-1.32-24.37-.25-36.47 2.22l4.19 15.12c7.45-1.36 14.99-2.23 22.56-2.58 4.58-.21 9.37-.14 13.96.56zm8.9 32.64l-4.25-15.33c-12.11-1.32-24.37-.25-36.47 2.22l4.19 15.12c7.45-1.36 14.99-2.23 22.56-2.58 4.59-.21 9.37-.14 13.96.56z"/><path class="cls-20" d="M712.29 1455.83c-22.82-2.48-46.22 3.47-67.99 11.42-17.58 6.42-34.88 14.26-50.05 25.36-1.03.75-2.03 1.47-3 2.19l5.43 19.57c3.86-3.89 8.15-7.42 12.55-10.67 26.95-19.89 59.89-31.57 93.35-33.09 4.58-.21 9.37-.14 13.96.56l-4.25-15.33z"/><path class="cls-19" d="M716.46 1471.42l-4.25-15.33c-12.11-1.32-24.37-.25-36.47 2.22l4.19 15.12c7.45-1.36 14.99-2.23 22.56-2.58 4.59-.21 9.37-.14 13.96.56z"/><path class="cls-20" d="M776.38 1752.82l-82.91 22.99-21.61-77.92s23.21-11.12 40.23-15.92c19.53-5.51 42.68-7.07 42.68-7.07l21.61 77.92z"/><path class="cls-19" d="M754.85 1675.18s-8.26.56-19.07 2.18c.19.39.37.78.54 1.17 4.46 10.16 5.81 21.48 4.99 32.49-.47 6.31-1.66 12.56-3.46 18.62-1.68 5.65-3.85 11.18-6.89 16.23-8.33 13.86-22.53 23.03-37.83 28.76l.41 1.46 82.91-22.99-21.61-77.92z"/><path class="cls-1" d="M590.43 1427.58c.11 6.36 3.5 12.12 6.49 17.73 24.39 45.82 26.92 100.11 45.79 148.47.93 2.39 3.02 5.26 5.37 4.23 1.96-.87 1.89-3.63 1.48-5.74-10.5-53.55-35.5-104.39-37.78-158.92-.24-5.78-1-17.69-8.29-19.47-7.21-1.76-13.16 7.56-13.06 13.7zm58.8 185.36c3.73 11.51 7.47 23.02 11.2 34.53.73 2.24 1.49 4.55 3.03 6.33 1.54 1.78 4.09 2.91 6.3 2.11.68-.25 1.32-.68 1.64-1.33.51-1 .18-2.21-.16-3.28-3.48-10.83-6.95-21.66-10.43-32.49-1.12-3.5-2.14-12.12-6.21-13.53-5.11-1.76-6.6 3.91-5.38 7.66z"/><path class="cls-30" d="M1546.29 1436.39l4.4 45.65-71.97 287.51-47.07 48.06 102.39-382.77 12.25 1.55z"/><path class="cls-12" d="M1431.65 1817.61s-20.51 7.15-38.25 0c-21.94-8.85-28.33-20.02-28.33-20.02l114.64-381.22s15.28-9.89 37.28-3.27c24.35 7.32 29.3 23.29 29.3 23.29l-114.64 381.22z"/><path class="cls-8" d="M1516.99 1413c-3.87-1.16-7.52-1.81-10.92-2.09 16.04 7.96 19.62 19.5 19.62 19.5l-117.37 390.3 23.33-3.2 114.64-381.22s-4.94-15.97-29.3-23.29z"/><path class="cls-20" d="M1510.34 1435.67c9.92 1.09 20.91 3.76 26.14 12.25a96.67 96.67 0 00-3.11 10.94c-.56-5.17-6.33-7.82-11.26-9.47-7.84-2.63-15.75-5.28-23.95-6.34-8.2-1.06-16.83-.44-24.25 3.22 1.2-8.97 1.97-11.35 10.96-11.61 8.5-.25 17.01.08 25.46 1.01zm-62.28 320.6l3.21-11.12c.19-.67.38-1.43.04-2.04-.27-.48-.79-.75-1.29-.99-18.69-8.88-39.46-13.34-60.15-12.9-.57.01-1.18.04-1.62.4-.43.36-.59.94-.71 1.49-.92 3.94-2.23 8.01-2.61 12.01 3.22.69 8.58-1.34 12.36-1.21 5.99.2 11.94 1.17 17.76 2.58 2.92.71 33.46 10.22 33.02 11.77zm6.9-21.59l3.21-11.12c.19-.67.38-1.43.04-2.04-.27-.48-.79-.75-1.29-.99-18.69-8.88-39.46-13.34-60.15-12.9-.57.01-1.18.04-1.62.4-.43.36-.59.94-.71 1.49-.92 3.94-2.23 8.01-2.61 12.02 3.22.69 8.58-1.34 12.36-1.21 5.99.2 11.94 1.17 17.76 2.58 2.92.71 33.46 10.22 33.02 11.77z"/><path class="cls-29" d="M1203.03 1822.76H836.58s-29.48-12.47-29.19-64.17c.29-51.99 30.24-65.82 30.24-65.82h365.4v22.01h-38.32l.35 87.24h37.97v20.74z"/><path class="cls-4" d="M1196.75 1802.02H845.16s-21.11-8.37-20.83-43.07c.28-34.89 20.83-44.17 20.83-44.17h351.59s-12.75 16.56-13.74 45.29c-.72 20.82 13.74 41.95 13.74 41.95z"/><path class="cls-17" d="M835.48 1735.1h351.67l-1.78 6.66-349.89-6.66zm-4.08 27.74h351.68l.56 6.71-352.24-6.71zm3.3 13.87h350.5l1.95 6.09-352.45-6.09z"/><path class="cls-26" d="M841 1769.36c-.52 11.48-.94 23.46 4.41 33.88-6.35.31-12.43-2.98-16.41-7.46-3.98-4.48-6.16-10.04-7.85-15.59-3.86-12.68-5.48-26.28-1.51-38.93 3.48-11.09 14.93-27.07 29.19-27.8-7.72 17.1-6.98 37.4-7.82 55.91z"/><path class="cls-12" d="M1192.81 1693.5H945.7s-19.88-5.24-19.68-26.96c.2-21.84 20.39-27.65 20.39-27.65h246.4v9.25h-25.84l.24 36.65h25.6v8.71z"/><path class="cls-4" d="M1188.58 1684.78H951.5s-14.24-3.52-14.05-18.09c.19-14.66 14.05-18.56 14.05-18.56h237.08s-8.6 6.96-9.26 19.03c-.48 8.75 9.26 17.62 9.26 17.62z"/><path class="cls-17" d="M944.96 1656.67h237.15l-1.2 2.8-235.95-2.8zm-2.75 11.65h237.15l.38 2.82-237.53-2.82zm2.23 5.83h236.35l1.32 2.56-237.67-2.56z"/><path class="cls-26" d="M948.69 1671.06c-.35 4.82-.64 9.86 2.97 14.23-4.28.13-8.38-1.25-11.06-3.13-2.69-1.88-4.16-4.22-5.3-6.55-2.61-5.33-3.69-11.04-1.01-16.36 2.35-4.66 10.07-11.37 19.68-11.68-5.2 7.18-4.71 15.71-5.28 23.49z"/><path class="cls-12" d="M1115.73 1858.81c-.11-12.37 1.15-24.72.86-37.09-.49-20.6-1.54-41.97-19.06-58.65l-47.76-.38c9.47 4.77 13.79 15.92 15.67 26.36 3.28 18.23 1.63 36.93 1.95 55.45.32 18.52 2.93 37.83 13.47 53.06a91.522 91.522 0 0112.8-33.71c4.4 14.06 15.53 25.84 29.32 31.02-5.57-11.04-7.14-23.68-7.25-36.05z"/><path class="cls-14" d="M292.85 1768.22c0 17.19-10.89 31.13-24.31 31.13s-24.31-13.94-24.31-31.13 10.89-31.13 24.31-31.13 24.31 13.94 24.31 31.13zm-39.19-525.7h18.96v350.1h-18.96zm0 371.69h18.96v54.5h-18.96z"/><path class="cls-5" d="M396.32 1808.63s-15.18 11.52-39.72 11.52c-33.74 0-47.28-11.52-47.28-11.52v-589.78s14.75-11.35 43.5-11.35c31.82 0 43.5 11.35 43.5 11.35v589.78z"/><path class="cls-10" d="M352.81 1207.51c-.62 0-1.23.01-1.84.02 13.98 3.35 19.57 8.78 19.57 8.78v589.78s-15.02 11.39-39.32 11.51c6.71 1.49 15.1 2.56 25.37 2.56 24.54 0 39.72-11.52 39.72-11.52v-589.78s-11.68-11.35-43.5-11.35z"/><path class="cls-14" d="M379.85 1768.22c0 17.19-10.89 31.13-24.31 31.13s-24.31-13.94-24.31-31.13 10.89-31.13 24.31-31.13 24.31 13.94 24.31 31.13zm-39.19-525.7h14.88v350.1h-14.88zm0 371.69h14.88v54.5h-14.88z"/><path class="cls-5" d="M483.32 1808.63s-15.18 11.52-39.72 11.52c-33.74 0-47.28-11.52-47.28-11.52v-589.78s14.75-11.35 43.5-11.35c31.82 0 43.5 11.35 43.5 11.35v589.78z"/><path class="cls-10" d="M439.82 1207.51c-.62 0-1.23.01-1.84.02 13.98 3.35 19.57 8.78 19.57 8.78v589.78s-15.02 11.39-39.32 11.51c6.71 1.49 15.1 2.56 25.37 2.56 24.54 0 39.72-11.52 39.72-11.52v-589.78s-11.68-11.35-43.5-11.35z"/><path class="cls-14" d="M466.85 1768.22c0 17.19-10.89 31.13-24.31 31.13s-24.31-13.94-24.31-31.13 10.89-31.13 24.31-31.13 24.31 13.94 24.31 31.13zm-39.19-525.7h14.88v350.1h-14.88zm0 371.69h14.88v54.5h-14.88z"/><path class="cls-5" d="M570.32 1808.63s-15.18 11.52-39.72 11.52c-33.74 0-47.28-11.52-47.28-11.52v-589.78s14.75-11.35 43.5-11.35c31.82 0 43.5 11.35 43.5 11.35v589.78z"/><path class="cls-10" d="M526.82 1207.51c-.62 0-1.23.01-1.84.02 13.98 3.35 19.57 8.78 19.57 8.78v589.78s-15.02 11.39-39.32 11.51c6.72 1.49 15.1 2.56 25.37 2.56 24.54 0 39.72-11.52 39.72-11.52v-589.78s-11.68-11.35-43.5-11.35z"/><path class="cls-6" d="M1743.32 1806.55s-25.01 7.11-65.43 7.11c-55.58 0-77.89-7.11-77.89-7.11v-364.19s24.3-7.01 71.66-7.01c52.42 0 71.66 7.01 71.66 7.01v364.19z"/><path class="cls-16" d="M1671.66 1435.36c-1.03 0-2.03 0-3.03.01 23.03 2.07 32.24 5.42 32.24 5.42v364.19s-24.75 7.03-64.78 7.11c11.06.92 24.88 1.58 41.8 1.58 40.42 0 65.43-7.11 65.43-7.11v-364.19s-19.24-7.01-71.66-7.01z"/><path class="cls-29" d="M1600 1804.06s-12.51 5.65-32.72 5.65c-27.79 0-38.94-5.65-38.94-5.65v-289.27s12.15-5.57 35.83-5.57c26.21 0 35.83 5.57 35.83 5.57v289.27z"/><path class="cls-25" d="M1564.17 1509.22c-.51 0-1.01 0-1.52.01 11.51 1.64 16.12 4.3 16.12 4.3v289.27s-12.37 5.59-32.39 5.65c5.53.73 12.44 1.25 20.9 1.25 20.21 0 32.72-5.65 32.72-5.65v-289.27s-9.62-5.57-35.83-5.57z"/><path class="cls-14" d="M553.85 1768.22c0 17.19-10.89 31.13-24.31 31.13s-24.31-13.94-24.31-31.13 10.89-31.13 24.31-31.13 24.31 13.94 24.31 31.13zm-39.19-525.7h18.76v350.1h-18.76zm0 371.69h18.76v54.5h-18.76z"/><path class="cls-9" d="M1612.3 1732.03c16.61 1.98 33.22 4.28 49.9 5.69 15.36 1.31 30.95 1.61 46.16-1.31 8.51-1.64 16.78-4.39 24.48-8.36 2.86-1.47.33-5.79-2.52-4.32-13.3 6.85-28.22 9.47-43.05 9.88-15.28.43-30.52-1.28-45.67-3.09-9.76-1.16-19.52-2.33-29.28-3.5-1.34-.16-2.5 1.26-2.5 2.5 0 1.48 1.15 2.34 2.5 2.5zm1.96 22.44c29.28 7.89 60.23 9.03 90.04 3.51 8.43-1.56 16.75-3.67 24.9-6.3 3.05-.98 1.75-5.81-1.33-4.82-28.13 9.08-58.26 11.77-87.56 7.8-8.34-1.13-16.6-2.82-24.73-5.01-3.11-.84-4.44 3.98-1.33 4.82zm101.32-263.86c0 11.33-16.63 20.52-37.14 20.52s-37.14-9.19-37.14-20.52 16.63-20.52 37.14-20.52 37.14 9.19 37.14 20.52z"/><path class="cls-2" d="M1610.64 1465.46c-1.34 9.6 2.15 19.11 4.58 28.49 9.54 36.88 2.9 75.74 3.18 113.83.05 6.4.3 12.87 2.02 19.04.9 3.25 2.89 6.9 6.25 7.08 4.8.25 6.53-6.2 6.63-11.01l1.59-81.72c.29-14.95.66-30.31 6.43-44.11 3.05-7.31 7.55-13.97 10.35-21.38 2.8-7.41 3.72-16.15-.34-22.96-9.8-16.45-38.48-3.13-40.69 12.74zm10.9 183.96c-1.49 3.07-1.16 6.66-.8 10.06.83 7.78 1.65 15.57 2.48 23.35.37 3.5 1.15 7.61 4.35 9.09 3.38 1.57 7.48-1.09 8.95-4.52 1.47-3.43 1.11-7.32 1.01-11.05-.14-4.93.21-9.87 1.04-14.73.66-3.84 1.6-7.86.33-11.54-2.32-6.7-14.37-6.79-17.34-.67z"/><path class="cls-6" d="M1293.46 1633.22l-73.95-4.5 27.21 169.57s4.25 5.61 20.41 8.74c12.35 2.39 40.31 2.39 52.65 0 16.16-3.13 20.41-8.74 20.41-8.74l27.21-169.57-73.95 4.5z"/><path d="M1326.54 1631.21c-.06 2.59-.1 5.17-.21 7.74-.63 15-3.54 29.81-6.6 44.5-4.97 23.87-10.56 48.14-23.22 68.97-9.25 15.23-22.91 28.62-39.59 35.4-2.88 1.17-7.34 1.72-11.45 2.68l1.25 7.79s4.25 5.61 20.41 8.74c12.35 2.39 40.31 2.39 52.65 0 16.16-3.13 20.41-8.74 20.41-8.74l27.21-169.57-40.87 2.49z" fill="#d8a64e"/><path d="M1367.41 1628.72c0 4.23-33.11 7.65-73.95 7.65s-73.95-3.43-73.95-7.65 33.11-7.65 73.95-7.65 73.95 3.43 73.95 7.65z" fill="#a8803f"/><path class="cls-2" d="M1236.15 1650.08c-.27 1.56.03 3.16.33 4.72 4.73 24.59 9.45 49.17 14.18 73.76.58 3.03 2.73 6.97 5.56 5.76 2.01-.86 2.11-3.63 1.88-5.8-2.57-24.39-6.45-48.83-4.88-73.3.17-2.71.37-5.6-.98-7.95-2.98-5.16-15.07-3.18-16.09 2.81zm22.83 92.57c-1.68-1.34-4.37-.02-5.2 1.95-.83 1.98-.37 4.23.09 6.32.8 3.57 1.6 7.15 2.39 10.72.3 1.34.66 2.78 1.71 3.66 1.46 1.22 3.8.82 5.21-.46 1.4-1.28 2.03-3.21 2.33-5.09.48-3.05.22-6.18-.25-9.23-.57-3.71-2.28-8.15-6.02-8.51l-.27.63z"/><path class="cls-29" d="M1310.56 1636.37l34.98-98.68 23.63-31.98-5.18 37.14-34 92.52-19.43 1z"/><path class="cls-30" d="M1282.36 1636.29l-16.58-113.32v-50.36l20.99 44.4 15.55 119.36-19.96-.08z"/><path class="cls-26" d="M1264 1464.69l1.78 28.72 9.06-1.63-10.84-27.09zm96.58 52.65l14.77-20.78-8.18 23.47-6.59-2.69z"/><path d="M1431.65 1817.52l96.69-13.46v-37.87l-49.62 3.36-47.07 47.97zm-754.95-14.6l-106.38-13.97v-44.94l46.52-1.99 59.86 60.9z" fill="#7f624e"/></svg>