<svg width="25" height="24" fill="none" xmlns="http://www.w3.org/2000/svg"><path d="M17.288 21a5 5 0 10-10 0m10 0h.803c1.118 0 1.677 0 2.104-.218a2 2 0 00.875-.875c.218-.427.218-.986.218-2.104V6.197c0-1.118 0-1.678-.218-2.105a2.001 2.001 0 00-.875-.874C19.767 3 19.208 3 18.088 3h-11.6c-1.12 0-1.68 0-2.108.218a1.999 1.999 0 00-.874.874c-.218.428-.218.988-.218 2.108v11.6c0 1.12 0 1.68.218 2.107.192.377.497.683.874.875.427.218.987.218 2.105.218h.803m10 0h-10m5-8a3 3 0 110-6 3 3 0 010 6z" stroke="#6D737A" stroke-width="2" stroke-linecap="round" stroke-linejoin="round"/></svg>