<svg width="25" height="24" viewBox="0 0 25 24" fill="none" xmlns="http://www.w3.org/2000/svg">
<path d="M17.2878 21C17.2878 18.2386 15.0493 16 12.2878 16C9.52642 16 7.28784 18.2386 7.28784 21M17.2878 21H18.0909C19.2088 21 19.7678 21 20.1952 20.7822C20.5716 20.5905 20.8783 20.2837 21.0701 19.9074C21.2878 19.48 21.2878 18.921 21.2878 17.8031V6.19691C21.2878 5.07899 21.2878 4.5192 21.0701 4.0918C20.8783 3.71547 20.5716 3.40973 20.1952 3.21799C19.7674 3 19.2081 3 18.088 3H6.48804C5.36793 3 4.80746 3 4.37964 3.21799C4.00331 3.40973 3.69758 3.71547 3.50583 4.0918C3.28784 4.51962 3.28784 5.08009 3.28784 6.2002V17.8002C3.28784 18.9203 3.28784 19.4796 3.50583 19.9074C3.69758 20.2837 4.00331 20.5905 4.37964 20.7822C4.80704 21 5.36684 21 6.48475 21H7.28784M17.2878 21H7.28784M12.2878 13C10.631 13 9.28784 11.6569 9.28784 10C9.28784 8.34315 10.631 7 12.2878 7C13.9447 7 15.2878 8.34315 15.2878 10C15.2878 11.6569 13.9447 13 12.2878 13Z" stroke="#6D737A" stroke-width="2" stroke-linecap="round" stroke-linejoin="round"/>
</svg>
